HIERARCHY
ROOT Hips
{
	OFFSET 0.000000 0.000000 0.000000
	CHANNELS 6 Xposition Yposition Zposition Xrotation Yrotation Zrotation
	JOINT LeftUpLeg_virtual
	{
		OFFSET 0.000000 0.000000 0.000000
		CHANNELS 3 Xrotation Yrotation Zrotation
		JOINT LeftUpLeg
		{
			OFFSET 10.205400 -3.823500 0.155100
			CHANNELS 3 Xrotation Yrotation Zrotation
			JOINT LeftLeg
			{
				OFFSET 0.708757 -12.982077 0.567790
				CHANNELS 3 Xrotation Yrotation Zrotation
				JOINT LeftFoot
				{
					OFFSET -0.708756 -10.717838 -2.184338
					CHANNELS 3 Xrotation Yrotation Zrotation
					JOINT LeftToeBase
					{
						OFFSET 0.108149 -7.191104 7.560241
						CHANNELS 3 Xrotation Yrotation Zrotation
						JOINT LeftToe_End
						{
							OFFSET 0.070230 0.081724 4.490308
							CHANNELS 3 Xrotation Yrotation Zrotation
							End Site
							{
								OFFSET 0 0 0
							}
						}
					}
				}
			}
		}
	}
	JOINT RightUpLeg_virtual
	{
		OFFSET 0.000000 0.000000 0.000000
		CHANNELS 3 Xrotation Yrotation Zrotation
		JOINT RightUpLeg
		{
			OFFSET -10.205400 -3.823500 0.005500
			CHANNELS 3 Xrotation Yrotation Zrotation
			JOINT RightLeg
			{
				OFFSET -0.708756 -12.982134 0.610632
				CHANNELS 3 Xrotation Yrotation Zrotation
				JOINT RightFoot
				{
					OFFSET 0.708754 -10.717769 -1.945823
					CHANNELS 3 Xrotation Yrotation Zrotation
					JOINT RightToeBase
					{
						OFFSET -0.108140 -7.191069 7.372968
						CHANNELS 3 Xrotation Yrotation Zrotation
						JOINT RightToe_End
						{
							OFFSET -0.070227 0.081735 4.479403
							CHANNELS 3 Xrotation Yrotation Zrotation
							End Site
							{
								OFFSET 0 0 0
							}
						}
					}
				}
			}
		}
	}
	JOINT Spine_virtual
	{
		OFFSET 0.000000 0.000000 0.000000
		CHANNELS 3 Xrotation Yrotation Zrotation
		JOINT Spine
		{
			OFFSET 0.000000 6.876099 0.125700
			CHANNELS 3 Xrotation Yrotation Zrotation
			JOINT Spine1
			{
				OFFSET 0.000000 5.730043 0.104720
				CHANNELS 3 Xrotation Yrotation Zrotation
				JOINT Spine1_split
				{
					OFFSET 0.000000 5.730043 0.104720
					CHANNELS 3 Xrotation Yrotation Zrotation
					JOINT Spine2
					{
						OFFSET 0.000000 5.730043 0.104720
						CHANNELS 3 Xrotation Yrotation Zrotation
						JOINT Neck_virtual
						{
							OFFSET 0.000000 0.000000 0.000000
							CHANNELS 3 Xrotation Yrotation Zrotation
							JOINT Neck
							{
								OFFSET 0.000000 10.314075 0.188496
								CHANNELS 3 Xrotation Yrotation Zrotation
								JOINT Head
								{
									OFFSET 0.000000 7.643700 -2.377400
									CHANNELS 3 Xrotation Yrotation Zrotation
									JOINT HeadTop_End
									{
										OFFSET 0.000000 43.788605 -13.619600
										CHANNELS 3 Xrotation Yrotation Zrotation
										End Site
										{
											OFFSET 0 0 0
										}
									}
								}
							}
						}
						JOINT LeftShoulder_virtual
						{
							OFFSET 0.000000 0.000000 0.000000
							CHANNELS 3 Xrotation Yrotation Zrotation
							JOINT LeftShoulder
							{
								OFFSET 2.196100 4.412489 0.087492
								CHANNELS 3 Xrotation Yrotation Zrotation
								JOINT LeftShoulder_split
								{
									OFFSET 2.196100 4.412489 0.087492
									CHANNELS 3 Xrotation Yrotation Zrotation
									JOINT LeftArm
									{
										OFFSET 8.771219 -2.981674 -0.026999
										CHANNELS 3 Xrotation Yrotation Zrotation
										JOINT LeftForeArm
										{
											OFFSET 8.512804 0.000000 -0.000000
											CHANNELS 3 Xrotation Yrotation Zrotation
											JOINT LeftHand
											{
												OFFSET 18.484802 0.000000 -0.000000
												CHANNELS 3 Xrotation Yrotation Zrotation
												End Site
												{
													OFFSET 0 0 0
												}
											}
										}
									}
								}
							}
						}
						JOINT RightShoulder_virtual
						{
							OFFSET 0.000000 0.000000 0.000000
							CHANNELS 3 Xrotation Yrotation Zrotation
							JOINT RightShoulder
							{
								OFFSET -2.196100 4.412496 0.070690
								CHANNELS 3 Xrotation Yrotation Zrotation
								JOINT RightShoulder_split
								{
									OFFSET -2.196100 4.412496 0.070690
									CHANNELS 3 Xrotation Yrotation Zrotation
									JOINT RightArm
									{
										OFFSET -8.771282 -2.981682 -0.094208
										CHANNELS 3 Xrotation Yrotation Zrotation
										JOINT RightForeArm
										{
											OFFSET -8.494598 0.000000 0.000000
											CHANNELS 3 Xrotation Yrotation Zrotation
											JOINT RightHand
											{
												OFFSET -18.483803 0.000000 0.000001
												CHANNELS 3 Xrotation Yrotation Zrotation
												End Site
												{
													OFFSET 0 0 0
												}
											}
										}
									}
								}
							}
						}
					}
				}
			}
		}
	}
}
MOTION
Frames: 10
Frame Time: 0.03333333
1.819249 25.948578 0.702379 0.000000 0.000000 0.000000 24.986966 -15.605819 9.482027 -72.938450 -3.763107 25.487022 60.811312 -13.520562 5.134972 -0.480559 7.666912 -24.282578 2.134563 -2.932195 0.126162 0.000000 0.000000 0.000000 24.332715 -15.637440 9.267352 -60.359563 -1.879890 -27.678097 65.455998 15.751770 -11.201980 -18.629295 -18.079699 35.473704 2.056151 9.264211 -16.960417 0.000000 0.000000 0.000000 24.316131 -8.101173 6.946278 13.892811 1.935644 -0.139100 8.801256 -2.769451 0.577724 0.077896 -0.187467 0.043455 0.000000 0.000000 0.000000 9.113878 -0.351763 1.093534 -11.583632 1.210478 -15.520787 -37.242447 9.199760 -5.245220 0.000000 0.000000 0.000000 7.553786 -2.137480 -0.759385 4.279977 -7.359249 3.914964 0.173497 -4.058297 1.388469 -51.397713 6.235596 -57.098022 -38.477806 -69.580879 -32.870702 0.000000 0.000000 0.000000 10.664305 -0.594240 1.427719 1.744865 10.728838 -10.181596 6.654091 2.823982 4.941161 -41.635669 -0.327730 55.874315 -50.486023 69.243249 47.508996 0.000000 0.000000 0.000000 
1.794926 25.936014 0.750402 0.000000 0.000000 0.000000 24.446272 -15.735557 9.414735 -72.311213 -3.264365 24.988549 60.713668 -13.358050 5.460411 -1.448620 8.108489 -23.875164 2.746003 -2.743701 -0.378089 0.000000 0.000000 0.000000 23.835212 -15.925819 9.256657 -60.168113 -2.259170 -27.976178 65.609964 15.620069 -10.615502 -19.638942 -18.138261 34.048452 3.234914 8.978289 -17.636894 0.000000 0.000000 0.000000 23.588535 -7.964019 6.946893 14.118459 1.654387 -0.403234 8.542851 -2.766707 0.699467 0.050460 -0.165913 0.036836 0.000000 0.000000 0.000000 9.236422 -0.364477 1.191514 -11.674241 0.564336 -15.834460 -38.205052 8.519105 -3.073807 0.000000 0.000000 0.000000 7.606509 -2.130216 -0.598613 4.587337 -7.501772 3.219414 -0.205469 -4.268434 1.560278 -49.935718 7.127692 -58.474513 -38.517844 -70.484649 -32.685392 0.000000 0.000000 0.000000 10.664290 -0.650052 1.506727 1.459337 10.353262 -9.598101 7.689062 3.663678 4.491135 -39.117030 0.052814 56.485975 -54.475594 70.768471 51.900326 0.000000 0.000000 0.000000 
1.750916 25.836206 0.771093 0.000000 0.000000 0.000000 24.066412 -15.862281 9.419040 -71.915588 -3.028930 24.644861 61.070661 -13.406271 5.697902 -2.392633 8.645976 -23.740643 3.263677 -2.564223 -0.710902 0.000000 0.000000 0.000000 23.499155 -16.019495 9.293558 -60.258914 -2.382519 -28.145850 66.144884 15.420315 -10.128021 -20.772012 -18.213359 32.617176 4.292124 8.573102 -18.086419 0.000000 0.000000 0.000000 23.092248 -7.966839 7.043182 14.381612 1.382200 -0.655863 8.345454 -2.803721 0.851789 0.051986 -0.121482 0.011663 0.000000 0.000000 0.000000 9.408768 -0.409786 1.278069 -11.838526 -0.003641 -16.186206 -39.522603 8.224207 -0.931838 0.000000 0.000000 0.000000 7.712580 -2.168831 -0.411826 4.916616 -7.749761 2.910800 -0.638724 -4.597472 1.545671 -48.242702 8.081898 -59.666634 -38.676875 -72.086698 -32.743900 0.000000 0.000000 0.000000 10.686032 -0.773464 1.585028 1.298017 9.945231 -9.327983 8.928665 4.223014 4.007384 -36.963112 0.192847 56.968364 -59.658936 72.405469 57.509312 0.000000 0.000000 0.000000 
1.696063 25.670015 0.787374 0.000000 0.000000 0.000000 23.843627 -16.032582 9.482596 -71.659497 -2.959878 24.463497 61.710650 -13.617656 5.876202 -3.378210 9.230720 -23.757423 3.591697 -2.415786 -0.761302 0.000000 0.000000 0.000000 23.366972 -16.014430 9.380307 -60.602834 -2.282703 -28.189241 66.902686 15.224888 -9.729260 -21.752559 -18.230173 31.445505 4.940571 8.155608 -18.406219 0.000000 0.000000 0.000000 22.844046 -8.114571 7.183467 14.590800 1.091693 -0.865481 8.195709 -2.860734 1.021542 0.061839 -0.053739 -0.001237 0.000000 0.000000 0.000000 9.601475 -0.463357 1.350464 -12.038901 -0.481336 -16.560494 -41.044796 8.220611 1.101021 0.000000 0.000000 0.000000 7.836333 -2.229986 -0.220996 5.248712 -8.124494 2.717433 -1.007592 -4.833285 1.367889 -46.406365 9.094104 -60.516869 -38.740700 -73.993912 -32.777221 0.000000 0.000000 0.000000 10.695185 -0.915365 1.656295 1.245387 9.571693 -9.310555 10.339551 4.593496 3.635228 -35.119354 -0.018015 57.279056 -65.827813 74.017449 64.120935 0.000000 0.000000 0.000000 
1.624036 25.475554 0.795078 0.000000 0.000000 0.000000 23.766789 -16.263037 9.597581 -71.534511 -3.024650 24.402628 62.498956 -13.934906 6.044142 -4.356566 9.814303 -23.933236 3.928945 -2.302380 -0.659734 0.000000 0.000000 0.000000 23.367249 -16.116595 9.524485 -61.130951 -2.068011 -28.113977 67.812037 14.995945 -9.396355 -22.526445 -18.248411 30.492416 5.339877 7.755311 -18.653735 0.000000 0.000000 0.000000 22.818778 -8.420174 7.342751 14.702213 0.790579 -0.992254 8.053356 -2.919265 1.193363 0.074068 0.001205 -0.011889 0.000000 0.000000 0.000000 9.763961 -0.505352 1.387369 -12.224880 -0.904794 -16.945877 -42.554995 8.419062 2.946400 0.000000 0.000000 0.000000 7.936756 -2.291644 -0.048263 5.550365 -8.625486 2.384775 -1.331558 -4.805179 1.175317 -44.545394 10.174620 -60.908205 -38.402797 -75.805053 -32.485677 0.000000 0.000000 0.000000 10.680979 -1.026657 1.721512 1.292833 9.279448 -9.436749 11.620091 4.982710 3.433600 -33.578279 -0.507023 57.316222 -71.966309 75.457382 70.707785 0.000000 0.000000 0.000000 
1.541998 25.278423 0.797728 0.000000 0.000000 0.000000 23.753573 -16.454346 9.724825 -71.526929 -3.207528 24.397815 63.273343 -14.343148 6.232308 -5.182270 10.318253 -24.357317 4.199141 -2.221750 -0.436389 0.000000 0.000000 0.000000 23.438313 -16.357721 9.709101 -61.728579 -1.813824 -27.959697 68.797832 14.691838 -9.100200 -23.258403 -18.326303 29.578343 5.788830 7.376767 -18.863907 0.000000 0.000000 0.000000 22.875506 -8.790412 7.500800 14.716503 0.532005 -1.008885 7.889248 -2.946460 1.354811 0.071837 0.059623 -0.012892 0.000000 0.000000 0.000000 9.853268 -0.517985 1.397902 -12.380056 -1.302027 -17.311277 -43.801918 8.852161 4.493754 0.000000 0.000000 0.000000 7.987119 -2.337631 0.095029 5.793765 -9.170254 1.811748 -1.241750 -4.564166 1.110237 -42.834080 11.187237 -60.926155 -37.235692 -77.142069 -31.416688 0.000000 0.000000 0.000000 10.618180 -1.087588 1.773650 1.432721 9.088596 -9.555422 12.607285 5.375293 3.493344 -32.383389 -1.105100 57.054373 -76.839792 76.699104 76.009822 0.000000 0.000000 0.000000 
1.464195 25.088156 0.793522 0.000000 0.000000 0.000000 23.726510 -16.567800 9.845119 -71.601242 -3.445216 24.408958 63.903783 -14.775772 6.435937 -5.680690 10.690126 -25.014398 4.298531 -2.166273 -0.122709 0.000000 0.000000 0.000000 23.527295 -16.675354 9.916911 -62.309685 -1.544656 -27.785269 69.872241 14.302425 -8.824479 -23.969096 -18.466210 28.651889 6.278409 7.058989 -19.043421 0.000000 0.000000 0.000000 22.959664 -9.136245 7.673592 14.675894 0.352851 -0.926378 7.691321 -2.943568 1.498280 0.049211 0.088137 -0.002954 0.000000 0.000000 0.000000 9.845637 -0.496946 1.389372 -12.504196 -1.682951 -17.593811 -44.671326 9.500773 5.664859 0.000000 0.000000 0.000000 7.993527 -2.363387 0.222510 5.958215 -9.706222 1.003790 -0.947271 -4.200101 1.060827 -41.323789 12.096869 -60.663213 -35.095937 -77.707513 -29.390553 0.000000 0.000000 0.000000 10.491673 -1.106968 1.819250 1.670016 9.028464 -9.494222 13.316638 5.842651 3.679898 -31.558281 -1.759673 56.601805 -79.813697 77.831139 79.366334 0.000000 0.000000 0.000000 
1.381019 24.918440 0.773813 0.000000 0.000000 0.000000 23.665764 -16.642395 9.982491 -71.728796 -3.682648 24.420066 64.337711 -15.180143 6.629486 -5.771255 10.918098 -25.841782 4.252346 -2.130156 0.207728 0.000000 0.000000 0.000000 23.585287 -17.019868 10.148442 -62.800454 -1.279241 -27.618377 70.993601 13.865286 -8.594500 -24.595475 -18.655060 27.849599 6.643361 6.847974 -19.224949 0.000000 0.000000 0.000000 22.991721 -9.423955 7.871457 14.598853 0.278607 -0.765674 7.470433 -2.926323 1.613097 0.030050 0.079605 0.020519 0.000000 0.000000 0.000000 9.762728 -0.455970 1.369341 -12.615249 -2.071369 -17.783656 -45.131079 10.340458 6.491116 0.000000 0.000000 0.000000 7.974894 -2.379293 0.340180 6.044307 -10.172149 0.046776 -0.512793 -3.863032 1.103888 -40.150188 12.790886 -60.269562 -32.587666 -77.543465 -27.018330 0.000000 0.000000 0.000000 10.316875 -1.108616 1.856733 1.984570 9.109540 -9.233344 13.729210 6.343070 3.884474 -31.054165 -2.417585 56.026437 -81.163999 78.928826 81.047141 0.000000 0.000000 0.000000 
1.295872 24.774513 0.732960 0.000000 0.000000 0.000000 23.544637 -16.753691 10.152928 -71.857511 -3.862828 24.447607 64.597655 -15.513680 6.807809 -5.543848 11.027649 -26.663505 4.163902 -2.110815 0.496929 0.000000 0.000000 0.000000 23.607961 -17.277471 10.384147 -63.171334 -0.994502 -27.475886 72.040457 13.468450 -8.453095 -25.096459 -18.844050 27.353265 6.728133 6.779492 -19.442661 0.000000 0.000000 0.000000 22.947750 -9.622876 8.078706 14.489235 0.308345 -0.555716 7.255830 -2.908437 1.687108 0.014386 0.047554 0.045309 0.000000 0.000000 0.000000 9.653682 -0.409118 1.349687 -12.686087 -2.472133 -17.883361 -45.212103 11.313676 7.044425 0.000000 0.000000 0.000000 7.962319 -2.386691 0.448908 6.070809 -10.505155 -0.936308 -0.066878 -3.665766 1.163377 -39.335517 13.214112 -59.844403 -30.487437 -76.815524 -25.049307 0.000000 0.000000 0.000000 10.117454 -1.128003 1.874190 2.357061 9.338269 -8.783179 14.014315 6.783002 3.930100 -30.795267 -3.106555 55.442466 -81.422316 80.001644 81.589588 0.000000 0.000000 0.000000 
1.211975 24.651375 0.666718 0.000000 0.000000 0.000000 23.402600 -16.975044 10.361457 -71.987721 -3.982780 24.514271 64.729696 -15.794751 6.968077 -5.156873 11.047729 -27.419782 4.202153 -2.098973 0.698733 0.000000 0.000000 0.000000 23.585820 -17.449499 10.597916 -63.412166 -0.697815 -27.363140 72.988672 13.148899 -8.421449 -25.535272 -19.013281 27.194019 6.532221 6.838522 -19.689053 0.000000 0.000000 0.000000 22.869454 -9.741264 8.282677 14.335633 0.411198 -0.326685 7.079532 -2.912995 1.714738 0.019674 0.007774 0.059815 0.000000 0.000000 0.000000 9.562602 -0.370496 1.322267 -12.709064 -2.868031 -17.937552 -45.045832 12.161602 7.411914 0.000000 0.000000 0.000000 7.983404 -2.392068 0.554905 6.065929 -10.708707 -1.843555 0.210562 -3.593381 1.167569 -38.946251 13.480954 -59.371447 -29.183541 -75.791221 -23.873955 0.000000 0.000000 0.000000 9.922641 -1.182121 1.861026 2.753422 9.719092 -8.204707 14.180849 7.253603 3.842275 -30.652325 -3.896501 54.882093 -80.751981 81.024144 81.167571 0.000000 0.000000 0.000000 
